HIERARCHY
ROOT Hips
{
	OFFSET -0.001795 -0.223333 0.028219
	CHANNELS 6 Xposition Yposition Zposition Zrotation Yrotation Xrotation 
	JOINT LeftUpLeg
	{
		OFFSET 0.069520 -0.091406 -0.006815
		CHANNELS 3 Zrotation Yrotation Xrotation
		JOINT LeftLeg
		{
			OFFSET 0.034277 -0.375199 -0.004496
			CHANNELS 3 Zrotation Yrotation Xrotation
			JOINT LeftFoot
			{
				OFFSET -0.013596 -0.397961 -0.043693
				CHANNELS 3 Zrotation Yrotation Xrotation
				JOINT LeftToe
				{
					OFFSET 0.026358 -0.055791 0.119288
					CHANNELS 3 Zrotation Yrotation Xrotation
					End Site
					{
						OFFSET 0.000000 0.000000 0.000000
					}
				}
			}
		}
	}
	JOINT RightUpLeg
	{
		OFFSET -0.067670 -0.090522 -0.004320
		CHANNELS 3 Zrotation Yrotation Xrotation
		JOINT RightLeg
		{
			OFFSET -0.038290 -0.382569 -0.008850
			CHANNELS 3 Zrotation Yrotation Xrotation
			JOINT RightFoot
			{
				OFFSET 0.015774 -0.398415 -0.042312
				CHANNELS 3 Zrotation Yrotation Xrotation
				JOINT RightToe
				{
					OFFSET -0.025372 -0.048144 0.123348
					CHANNELS 3 Zrotation Yrotation Xrotation
					End Site
					{
						OFFSET 0.000000 0.000000 0.000000
					}
				}
			}
		}
	}
	JOINT Spine
	{
		OFFSET -0.002533 0.108963 -0.026696
		CHANNELS 3 Zrotation Yrotation Xrotation
		JOINT Spine1
		{
			OFFSET 0.005487 0.135180 0.001092
			CHANNELS 3 Zrotation Yrotation Xrotation
			JOINT Spine2
			{
				OFFSET 0.001457 0.052922 0.025425
				CHANNELS 3 Zrotation Yrotation Xrotation
				JOINT Neck
				{
					OFFSET -0.002778 0.213870 -0.042857
					CHANNELS 3 Zrotation Yrotation Xrotation
					JOINT Head
					{
						OFFSET 0.005152 0.064970 0.051349
						CHANNELS 3 Zrotation Yrotation Xrotation
						End Site
						{
							OFFSET 0.000000 0.000000 0.000000
						}
					}
				}
				JOINT LeftShoulder
				{
					OFFSET 0.078845 0.121749 -0.034090
					CHANNELS 3 Zrotation Yrotation Xrotation
					JOINT LeftArm
					{
						OFFSET 0.090977 0.030469 -0.008868
						CHANNELS 3 Zrotation Yrotation Xrotation
						JOINT LeftForeArm
						{
							OFFSET 0.259612 -0.012772 -0.027456
							CHANNELS 3 Zrotation Yrotation Xrotation
							JOINT LeftHand
							{
								OFFSET 0.249234 0.008986 -0.001171
								CHANNELS 3 Zrotation Yrotation Xrotation
								End Site
								{
									OFFSET 0.000000 0.000000 0.000000
								}
							}
						}
					}
				}
				JOINT RightShoulder
				{
					OFFSET -0.081759 0.118833 -0.038615
					CHANNELS 3 Zrotation Yrotation Xrotation
					JOINT RightArm
					{
						OFFSET -0.096012 0.032551 -0.009143
						CHANNELS 3 Zrotation Yrotation Xrotation
						JOINT RightForeArm
						{
							OFFSET -0.253742 -0.013329 -0.021401
							CHANNELS 3 Zrotation Yrotation Xrotation
							JOINT RightHand
							{
								OFFSET -0.255298 0.007772 -0.005559
								CHANNELS 3 Zrotation Yrotation Xrotation
								End Site
								{
									OFFSET 0.000000 0.000000 0.000000
								}
							}
						}
					}
				}
			}
		}
	}
}
MOTION
Frames: 18
Frame Time: 0.050000
-0.132725 0.931549 0.402905 0.170856 -11.036826 -3.287152 1.986245 -0.446677 -6.691032 3.038574 -0.895077 12.220078 6.354028 13.696325 7.753750 0.000000 0.000000 0.000000 0.065716 -0.385374 4.601721 -1.028910 -0.038417 -2.716516 -6.570379 -16.620945 5.288646 0.000000 0.000000 0.000000 -4.393780 0.023701 4.309367 -1.046779 0.573999 2.938527 5.109825 2.348681 8.467240 3.035649 -0.791593 -20.951277 0.000000 0.000000 0.000000 -10.498756 -6.133680 2.467274 -53.969730 -24.738000 4.673067 33.274294 -57.909476 -14.378842 0.000000 0.000000 0.000000 10.017674 18.895562 6.838652 46.670340 29.902350 6.649821 -27.550778 62.038771 -14.996710 0.000000 0.000000 0.000000 
-0.128638 0.932968 0.407184 -0.146879 -10.662408 -2.715286 2.235916 -0.450716 -6.980610 2.647211 -0.805673 12.018023 6.197221 13.433350 7.612017 0.000000 0.000000 0.000000 -0.568360 -0.206474 2.833822 0.233164 -0.020709 -0.035724 -6.793081 -17.098256 5.347997 0.000000 0.000000 0.000000 -4.722332 0.054513 5.209455 -0.807242 0.436842 2.540699 5.010756 2.163057 8.476599 3.011408 -0.793506 -20.716067 0.000000 0.000000 0.000000 -9.797305 -7.603468 3.108066 -52.503119 -26.996710 5.550926 35.582038 -52.457441 -13.995739 0.000000 0.000000 0.000000 9.814000 19.398070 7.065918 46.356395 31.236669 7.110183 -30.462426 58.583432 -15.565666 0.000000 0.000000 0.000000 
-0.125308 0.934280 0.409034 -0.364541 -10.141919 -2.095204 2.258410 -0.492822 -7.571179 2.606740 -0.802557 11.905999 5.970966 13.057105 7.658032 0.000000 0.000000 0.000000 -1.016934 -0.009816 0.629870 1.139780 0.009200 3.029257 -7.109918 -17.799709 5.586133 0.000000 0.000000 0.000000 -4.974148 0.085604 5.922383 -0.784087 0.422062 2.593760 4.908649 1.919648 8.306887 2.866441 -0.661422 -21.171050 0.000000 0.000000 0.000000 -9.006055 -8.704388 3.553074 -51.663249 -29.504876 6.642224 37.881872 -47.427504 -13.526814 0.000000 0.000000 0.000000 9.494551 19.636353 7.168847 46.495788 33.247588 7.950850 -33.651313 53.922704 -15.674176 0.000000 0.000000 0.000000 
-0.122578 0.935843 0.409684 -0.607041 -10.070768 -1.456551 2.252804 -0.530221 -8.113574 2.748488 -0.828474 11.684396 5.928291 12.995737 7.996416 0.000000 0.000000 0.000000 -1.314440 0.170746 -1.445028 1.856936 0.019538 5.577442 -7.184971 -18.070827 6.097672 0.000000 0.000000 0.000000 -4.913319 0.103080 6.790676 -0.771934 0.403253 1.979170 4.520335 1.774828 8.555509 2.516322 -0.525791 -20.527370 0.000000 0.000000 0.000000 -9.009221 -9.180242 3.779171 -50.919516 -31.170546 7.262305 40.709911 -45.001232 -13.915831 0.000000 0.000000 0.000000 9.261803 19.729789 7.201655 46.640406 35.117963 8.708055 -35.960328 50.287587 -15.497368 0.000000 0.000000 0.000000 
-0.120652 0.937076 0.410107 -0.625931 -9.569460 -1.076057 2.230519 -0.543438 -8.197267 2.613508 -0.783539 10.945185 5.666903 12.574922 8.155224 0.000000 0.000000 0.000000 -1.630828 0.303685 -2.961989 2.318766 0.026726 7.622922 -7.441452 -18.675392 6.681893 0.000000 0.000000 0.000000 -4.769204 0.102867 7.394655 -0.643839 0.337996 2.099089 4.167806 1.652110 8.511940 2.505188 -0.473365 -20.774370 0.000000 0.000000 0.000000 -8.904214 -9.256007 3.780478 -51.372536 -32.901816 8.200893 43.485313 -43.387201 -14.514634 0.000000 0.000000 0.000000 9.160001 19.938615 7.325385 46.888774 36.568285 9.380136 -38.235914 47.032726 -15.288861 0.000000 0.000000 0.000000 
-0.119444 0.937774 0.410530 -0.678838 -9.088194 -0.830686 2.284447 -0.535564 -8.056956 2.496096 -0.738165 10.113747 5.419934 12.174751 8.165765 0.000000 0.000000 0.000000 -1.906736 0.364680 -3.655809 2.834480 -0.028485 8.485397 -7.645169 -19.128469 7.139505 0.000000 0.000000 0.000000 -4.438932 0.083297 8.046585 -0.781440 0.404039 2.100542 3.633033 1.487778 8.444901 2.553987 -0.533862 -20.074158 0.000000 0.000000 0.000000 -9.031495 -9.641352 3.933085 -51.113226 -33.901321 8.618006 47.430141 -42.887240 -15.993005 0.000000 0.000000 0.000000 9.813165 19.944947 7.411157 46.518421 37.752247 9.795807 -40.899183 44.109440 -15.273272 0.000000 0.000000 0.000000 
-0.119064 0.938230 0.410604 -0.550833 -8.797110 -0.702918 2.275135 -0.538605 -8.043029 2.235467 -0.673702 9.709414 5.259570 11.919759 8.253786 0.000000 0.000000 0.000000 -2.110263 0.408195 -4.169386 2.950319 -0.029221 9.156545 -7.792554 -19.438006 7.381215 0.000000 0.000000 0.000000 -4.100222 0.057462 8.452304 -1.000370 0.514846 2.262436 3.345132 1.573413 8.652722 2.384787 -0.411611 -19.999771 0.000000 0.000000 0.000000 -9.625409 -9.675144 3.947847 -51.143420 -34.974447 9.093615 51.148404 -42.634036 -17.483097 0.000000 0.000000 0.000000 10.315752 19.983712 7.522738 46.553142 38.844701 10.265144 -43.163583 42.144180 -15.341089 0.000000 0.000000 0.000000 
-0.119204 0.938189 0.410284 -0.506986 -8.424188 -0.417090 2.352966 -0.540114 -8.092068 2.059490 -0.621116 9.082668 5.076508 11.619155 8.208599 0.000000 0.000000 0.000000 -2.362683 0.431481 -4.440943 3.381864 -0.108257 9.094812 -7.955926 -19.754044 7.491754 0.000000 0.000000 0.000000 -4.090354 0.063173 9.097696 -1.102291 0.560382 2.070489 3.071014 1.739133 8.796609 2.209171 -0.293573 -19.630652 0.000000 0.000000 0.000000 -10.311000 -10.155097 4.149325 -50.679742 -35.723577 9.284538 53.875865 -42.141281 -18.500244 0.000000 0.000000 0.000000 10.906637 20.079132 7.697746 45.899074 39.864553 10.510594 -44.914546 40.137175 -15.089845 0.000000 0.000000 0.000000 
-0.119705 0.938245 0.409567 -0.459737 -8.016338 -0.285763 2.513838 -0.543176 -8.284719 1.773130 -0.563460 8.954199 4.868601 11.281905 8.209990 0.000000 0.000000 0.000000 -2.420150 0.454265 -4.730113 3.521243 -0.132053 9.339305 -8.154321 -20.132760 7.627487 0.000000 0.000000 0.000000 -3.924691 0.050127 9.730313 -1.200963 0.609414 2.216879 2.950243 1.704562 8.688724 2.188848 -0.268682 -19.464261 0.000000 0.000000 0.000000 -11.111825 -10.286391 4.220236 -50.044978 -36.072426 9.258614 56.019288 -41.605697 -19.206954 0.000000 0.000000 0.000000 11.634601 20.052583 7.790816 45.183039 40.202809 10.455697 -46.142496 39.650868 -15.316031 0.000000 0.000000 0.000000 
-0.120243 0.937973 0.408808 -0.533172 -7.781237 -0.008826 2.849865 -0.536743 -8.572639 1.417085 -0.489249 8.792687 4.756963 11.092215 8.127317 0.000000 0.000000 0.000000 -2.383430 0.492324 -5.189940 3.710671 -0.161572 9.595843 -8.291652 -20.395311 7.663277 0.000000 0.000000 0.000000 -3.636477 0.025714 10.411256 -1.416210 0.718215 2.319539 2.829793 1.803662 8.666291 2.162043 -0.275388 -18.794650 0.000000 0.000000 0.000000 -11.696131 -10.842961 4.472355 -49.089223 -36.103831 8.994110 58.147464 -41.034962 -19.892453 0.000000 0.000000 0.000000 12.097237 20.004060 7.866437 44.263723 40.164216 10.169945 -47.521450 39.481843 -15.723448 0.000000 0.000000 0.000000 
-0.120951 0.938039 0.407958 -0.614396 -7.480928 0.176044 3.096564 -0.532008 -8.775645 1.249624 -0.454282 8.630612 4.600155 10.840027 8.152135 0.000000 0.000000 0.000000 -2.382040 0.520863 -5.537770 4.002836 -0.212172 9.827642 -8.434751 -20.673907 7.825299 0.000000 0.000000 0.000000 -3.352321 -0.004349 10.997492 -1.559009 0.794169 2.641884 2.679643 1.981671 8.517840 2.316262 -0.325501 -18.711436 0.000000 0.000000 0.000000 -12.037896 -11.028282 4.508956 -48.427809 -35.947084 8.742869 59.451520 -40.884484 -20.496648 0.000000 0.000000 0.000000 12.356869 19.641831 7.796904 43.749998 39.699488 9.849060 -48.906284 40.021364 -16.446333 0.000000 0.000000 0.000000 
-0.121798 0.937944 0.407219 -0.717345 -7.208300 0.377504 3.405685 -0.516316 -8.879760 1.030137 -0.404211 8.289668 4.458152 10.607263 8.130151 0.000000 0.000000 0.000000 -2.381969 0.544589 -5.822999 4.347602 -0.275495 9.929295 -8.564946 -20.921574 7.923511 0.000000 0.000000 0.000000 -3.132960 -0.029655 11.518807 -1.570176 0.798798 2.736481 2.574038 1.998243 8.746382 2.267949 -0.328552 -18.110030 0.000000 0.000000 0.000000 -12.482518 -11.174134 4.576447 -47.527399 -35.437445 8.244079 61.021529 -40.967519 -21.274929 0.000000 0.000000 0.000000 12.708395 19.660880 7.886239 42.834886 39.107555 9.329750 -49.814951 40.485706 -16.985291 0.000000 0.000000 0.000000 
-0.122646 0.937799 0.406470 -0.776457 -7.254737 0.730070 3.589564 -0.517475 -9.158130 0.942313 -0.379583 8.047927 4.477868 10.645072 8.199848 0.000000 0.000000 0.000000 -2.371085 0.579485 -6.218577 4.545961 -0.309121 9.864954 -8.558993 -20.918665 7.895526 0.000000 0.000000 0.000000 -3.066611 -0.033069 11.723338 -1.667372 0.849056 2.755632 2.575487 2.105184 8.869012 2.288088 -0.352271 -17.860706 0.000000 0.000000 0.000000 -12.703686 -11.037516 4.513041 -46.788960 -34.673660 7.705162 62.125823 -41.420476 -22.049035 0.000000 0.000000 0.000000 12.652176 19.607866 7.883214 42.602834 38.084573 8.860053 -50.057667 41.056882 -17.331732 0.000000 0.000000 0.000000 
-0.123382 0.937626 0.405772 -0.900391 -7.112746 1.054683 3.810842 -0.516338 -9.429921 0.902041 -0.366490 7.812034 4.414153 10.542076 8.198888 0.000000 0.000000 0.000000 -2.215585 0.613569 -6.582051 4.624831 -0.325693 9.854004 -8.640524 -21.077144 7.939646 0.000000 0.000000 0.000000 -2.882132 -0.054143 12.195816 -1.838288 0.937042 2.885198 2.480015 2.112860 8.787755 2.161738 -0.268063 -17.787012 0.000000 0.000000 0.000000 -12.939995 -10.753800 4.367838 -46.108375 -34.307037 7.386964 62.597489 -41.833810 -22.552205 0.000000 0.000000 0.000000 12.398247 19.367365 7.770601 42.076208 37.380865 8.452215 -49.161915 41.288958 -17.055038 0.000000 0.000000 0.000000 
-0.123779 0.937528 0.405022 -0.930867 -7.045373 1.274198 4.037125 -0.503607 -9.511846 0.631868 -0.305625 7.429945 4.369918 10.474373 8.239722 0.000000 0.000000 0.000000 -2.142581 0.640257 -6.869269 4.620374 -0.325861 9.869903 -8.687009 -21.169014 7.960155 0.000000 0.000000 0.000000 -2.705503 -0.075707 12.869304 -1.911493 0.970838 2.751214 2.440556 2.170084 8.787149 2.380939 -0.380116 -17.857692 0.000000 0.000000 0.000000 -13.380627 -10.490844 4.240786 -45.472099 -33.821122 7.026569 62.758371 -42.675342 -23.177455 0.000000 0.000000 0.000000 12.181516 19.040865 7.621101 41.606336 36.657726 8.054471 -47.893103 41.922537 -16.807404 0.000000 0.000000 0.000000 
-0.123860 0.937391 0.404095 -0.973599 -6.996296 1.579580 4.395880 -0.484084 -9.697277 0.120796 -0.201470 7.043754 4.334400 10.420359 8.279865 0.000000 0.000000 0.000000 -2.199534 0.682110 -7.352501 4.830196 -0.360495 10.030588 -8.729040 -21.259135 8.014149 0.000000 0.000000 0.000000 -2.490707 -0.103160 13.334198 -2.073234 1.059065 3.043795 2.371536 2.166512 8.559027 2.179447 -0.236175 -18.022879 0.000000 0.000000 0.000000 -13.605749 -10.316926 4.150726 -44.821899 -33.524106 6.774864 62.486729 -43.195825 -23.405764 0.000000 0.000000 0.000000 12.278171 18.989736 7.618193 40.947734 36.094204 7.695792 -46.901921 42.338421 -16.584007 0.000000 0.000000 0.000000 
-0.123667 0.936851 0.402980 -1.042528 -6.918508 1.854116 4.568773 -0.486615 -10.033516 -0.044671 -0.169802 6.963564 4.322726 10.390473 8.175883 0.000000 0.000000 0.000000 -2.278788 0.742593 -8.060986 5.109489 -0.403668 10.637415 -8.819632 -21.438779 8.007192 0.000000 0.000000 0.000000 -2.459088 -0.107742 13.917241 -2.037158 1.038813 3.035939 2.333767 2.071911 8.553075 2.018390 -0.143667 -18.033789 0.000000 0.000000 0.000000 -13.741929 -10.253679 4.135724 -44.107018 -33.514492 6.607181 61.447245 -43.737184 -23.234580 0.000000 0.000000 0.000000 12.344073 19.076910 7.664724 40.093030 35.896101 7.403739 -44.912677 42.396220 -15.792754 0.000000 0.000000 0.000000 
-0.123434 0.936505 0.401872 -1.020963 -6.764698 2.271668 4.716254 -0.498378 -10.491320 -0.340486 -0.113036 6.768487 4.265707 10.300505 8.179661 0.000000 0.000000 0.000000 -2.437967 0.814517 -8.930974 5.352949 -0.445172 11.237964 -8.947236 -21.693159 8.091176 0.000000 0.000000 0.000000 -2.478261 -0.105064 14.435065 -2.179071 1.112178 3.187059 2.474939 1.753940 8.316416 1.666218 0.044450 -18.102795 0.000000 0.000000 0.000000 -13.754650 -10.237303 4.178392 -43.426579 -34.123740 6.712094 59.358496 -43.714628 -22.175993 0.000000 0.000000 0.000000 11.951545 18.959502 7.526172 40.014897 36.093704 7.463938 -42.939459 42.357528 -15.016784 0.000000 0.000000 0.000000 
